<?xml version="1.0" encoding="utf-8"?>
<!-- Generator: Adobe Illustrator 19.0.0, SVG Export Plug-In . SVG Version: 6.00 Build 0)  -->
<svg version="1.1" id="Ebene_1" xmlns="http://www.w3.org/2000/svg" xmlns:xlink="http://www.w3.org/1999/xlink" x="0px" y="0px"
	 viewBox="-97 397.6 804 206.4" style="enable-background:new -97 397.6 804 206.4;" xml:space="preserve">
<style type="text/css">
	.st0{fill:#6E6E6E;}
</style>
<path d="M699.4,588.8c4.2,0,7.6,3.4,7.6,7.6c0,4.2-3.4,7.6-7.6,7.6H454.1c-7,0-13.7-2.9-18.6-7.5c-4.9-4.6-8.1-11-8.3-18.1
	c-0.2-6.6,1.6-12.4,5-17.1c3.4-4.7,8.3-8.2,14.2-10.1c0.2-0.1,0.4-0.2,0.6-0.2l66.2-19.8c1.1-0.4,2.1-1,2.9-1.6
	c2.3-1.6,3.8-3.9,4.4-6.3c0.7-2.5,0.5-5.2-0.4-7.5c-0.3-0.9-0.8-1.7-1.3-2.5c-1.2-1.6-2.6-2.9-4.3-3.7c-1.8-0.9-4.1-1.3-6.6-1.3h-54
	c-5.9,0-11.5,1.3-16.6,3.7c-5.4,2.5-10.4,6.3-14.6,11l-62.7,69.6c-0.2,0.2-0.4,0.4-0.6,0.6c-4,4-7.9,6.8-12.1,8.6
	c-4.7,1.9-9.5,2.5-15,1.5c-6.7-1.1-13.1-5.2-17.2-10.9c-3.8-5.3-5.8-12.1-4.6-19.5c0.1-0.3,0.1-0.6,0.2-1l11.4-47.3l0.1-0.2
	c0.8-3.6,0.6-6.5-0.3-8.7c-0.9-2.4-2.8-4.3-4.9-5.7c-2.8-1.6-5.7-2-8.4-1.4c-2.9,0.6-5.6,2.3-8,5c-0.1,0.1-0.2,0.2-0.3,0.4
	l-64.1,70.6l-0.1,0.1c-5.5,6.1-12.2,10.9-19.6,14.2c-7.4,3.3-15.5,5.1-23.7,5.1h-78.5c-2.9,0-5.9-0.6-8.7-1.7l0,0
	c-2.7-1.1-5.3-2.6-7.6-4.7l0,0l0,0l-0.3-0.3h0l0,0c-2.4-2.2-4.2-4.9-5.5-7.7c-4.4,3.8-9.3,6.9-14.5,9.2c-7.4,3.3-15.5,5.1-23.7,5.1
	H-69.2c-3.4,0-6.7-0.6-9.9-1.9c-3.2-1.2-6.1-3-8.7-5.3c-5.7-5.1-8.8-12.1-9.2-19.2c-0.4-7.1,2-14.4,7.1-20.1L51.9,400.1
	c2.8-3.1,7.6-3.4,10.7-0.6c3.1,2.8,3.4,7.6,0.6,10.7L-78.6,567.7c-2.3,2.6-3.4,5.9-3.2,9.1c0.2,3.2,1.6,6.4,4.2,8.7
	c1.2,1.1,2.5,1.9,3.9,2.4c1.4,0.5,2.9,0.8,4.5,0.8H54.1c6.1,0,12.1-1.3,17.5-3.7c5.4-2.4,10.4-6,14.5-10.5c0.1-0.2,0.3-0.3,0.4-0.4
	l8.9-9.8c0.3-0.4,0.6-0.8,1-1.2l0,0l45.7-50.7c5.5-6.1,12.2-10.9,19.6-14.2c7.4-3.3,15.5-5.1,23.7-5.1h58.3c4.2,0,7.6,3.4,7.6,7.6
	c0,4.2-3.4,7.6-7.6,7.6h-58.3c-6.1,0-12.1,1.3-17.5,3.7c-5.4,2.4-10.4,6-14.5,10.5l-15.4,17h63.8c4.2,0,7.6,3.4,7.6,7.6
	c0,4.2-3.4,7.6-7.6,7.6h-77.5L107.9,573c-0.1,0.2-0.3,0.3-0.4,0.5c-1.6,1.9-2.3,4.2-2.2,6.5c0.1,2.3,1.1,4.5,2.9,6.2
	c0.2,0.1,0.3,0.3,0.5,0.5v0l0,0c0.8,0.6,1.6,1.1,2.6,1.5l0,0l0,0c1,0.4,2.1,0.6,3.3,0.6H193c6.1,0,12.1-1.3,17.5-3.7
	c5.4-2.4,10.4-6,14.5-10.5l0.2-0.2l64.1-70.6l0.1-0.1c4.5-5.2,10.2-8.7,16.3-10c6.2-1.3,12.7-0.4,18.9,3l0,0
	c0.1,0.1,0.2,0.1,0.3,0.2c4.9,3,9.1,7.3,11.4,13.2c1.9,4.9,2.5,10.7,0.9,17.6c0,0.2-0.1,0.3-0.1,0.5l-11.4,47.3
	c-0.5,3,0.4,5.8,2,8.1c1.8,2.6,4.6,4.4,7.3,4.8c2.6,0.4,4.7,0.2,6.7-0.6c2.3-0.9,4.6-2.7,7.2-5.3l62.7-69.6
	c5.5-6.2,12.1-11.1,19.5-14.6c7.1-3.3,14.9-5.2,23-5.2h54c4.8,0,9.2,0.9,13.2,2.9c4,1.9,7.4,4.8,10.1,8.7c1.3,1.8,2.3,3.8,3.1,5.8
	c2,5.3,2.3,11.2,0.8,16.8c-1.5,5.6-4.9,10.9-10.4,14.8c-1.8,1.3-3.9,2.4-6.1,3.3c-0.3,0.1-0.6,0.2-0.9,0.3l-66.4,19.9
	c-0.1,0-0.3,0.1-0.4,0.1c-2.7,0.9-5,2.5-6.5,4.6c-1.5,2-2.3,4.7-2.2,7.7c0.1,2.9,1.5,5.5,3.6,7.5c2.2,2,5.1,3.3,8.2,3.3L699.4,588.8
	L699.4,588.8z"/>
<path class="st0" d="M699.4,588.8c4.2,0,7.6,3.4,7.6,7.6c0,4.2-3.4,7.6-7.6,7.6H454.1c-7,0-13.7-2.9-18.6-7.5
	c-4.9-4.6-8.1-11-8.3-18.1c-0.2-6.6,1.6-12.4,5-17.1c3.4-4.7,8.3-8.2,14.2-10.1c0.2-0.1,0.4-0.2,0.6-0.2l66.2-19.8
	c1.1-0.4,2.1-1,2.9-1.6c2.3-1.6,3.8-3.9,4.4-6.3c0.7-2.5,0.5-5.2-0.4-7.5c-0.3-0.9-0.8-1.7-1.3-2.5c-1.2-1.6-2.6-2.9-4.3-3.7
	c-1.8-0.9-4.1-1.3-6.6-1.3h-54c-5.9,0-11.5,1.3-16.6,3.7c-5.4,2.5-10.4,6.3-14.6,11l-62.7,69.6c-0.2,0.2-0.4,0.4-0.6,0.6
	c-4,4-7.9,6.8-12.1,8.6c-4.7,1.9-9.5,2.5-15,1.5c-6.7-1.1-13.1-5.2-17.2-10.9c-3.8-5.3-5.8-12.1-4.6-19.5c0.1-0.3,0.1-0.6,0.2-1
	l11.4-47.3l0.1-0.2c0.8-3.6,0.6-6.5-0.3-8.7c-0.9-2.4-2.8-4.3-4.9-5.7c-2.8-1.6-5.7-2-8.4-1.4c-2.9,0.6-5.6,2.3-8,5
	c-0.1,0.1-0.2,0.2-0.3,0.4l-64.1,70.6l-0.1,0.1c-5.5,6.1-12.2,10.9-19.6,14.2c-7.4,3.3-15.5,5.1-23.7,5.1h-78.5
	c-2.9,0-5.9-0.6-8.7-1.7l0,0c-2.7-1.1-5.3-2.6-7.6-4.7l0,0l0,0l-0.3-0.3h0l0,0c-2.4-2.2-4.2-4.9-5.5-7.7c-4.4,3.8-9.3,6.9-14.5,9.2
	c-7.4,3.3-15.5,5.1-23.7,5.1H-69.2c-3.4,0-6.7-0.6-9.9-1.9c-3.2-1.2-6.1-3-8.7-5.3c-5.7-5.1-8.8-12.1-9.2-19.2
	c-0.4-7.1,2-14.4,7.1-20.1L51.9,400.1c2.8-3.1,7.6-3.4,10.7-0.6c3.1,2.8,3.4,7.6,0.6,10.7L-78.6,567.7c-2.3,2.6-3.4,5.9-3.2,9.1
	c0.2,3.2,1.6,6.4,4.2,8.7c1.2,1.1,2.5,1.9,3.9,2.4c1.4,0.5,2.9,0.8,4.5,0.8H54.1c6.1,0,12.1-1.3,17.5-3.7c5.4-2.4,10.4-6,14.5-10.5
	c0.1-0.2,0.3-0.3,0.4-0.4l8.9-9.8c0.3-0.4,0.6-0.8,1-1.2l0,0l45.7-50.7c5.5-6.1,12.2-10.9,19.6-14.2c7.4-3.3,15.5-5.1,23.7-5.1h58.3
	c4.2,0,7.6,3.4,7.6,7.6c0,4.2-3.4,7.6-7.6,7.6h-58.3c-6.1,0-12.1,1.3-17.5,3.7c-5.4,2.4-10.4,6-14.5,10.5l-15.4,17h63.8
	c4.2,0,7.6,3.4,7.6,7.6c0,4.2-3.4,7.6-7.6,7.6h-77.5L107.9,573c-0.1,0.2-0.3,0.3-0.4,0.5c-1.6,1.9-2.3,4.2-2.2,6.5
	c0.1,2.3,1.1,4.5,2.9,6.2c0.2,0.1,0.3,0.3,0.5,0.5v0l0,0c0.8,0.6,1.6,1.1,2.6,1.5l0,0l0,0c1,0.4,2.1,0.6,3.3,0.6H193
	c6.1,0,12.1-1.3,17.5-3.7c5.4-2.4,10.4-6,14.5-10.5l0.2-0.2l64.1-70.6l0.1-0.1c4.5-5.2,10.2-8.7,16.3-10c6.2-1.3,12.7-0.4,18.9,3
	l0,0c0.1,0.1,0.2,0.1,0.3,0.2c4.9,3,9.1,7.3,11.4,13.2c1.9,4.9,2.5,10.7,0.9,17.6c0,0.2-0.1,0.3-0.1,0.5l-11.4,47.3
	c-0.5,3,0.4,5.8,2,8.1c1.8,2.6,4.6,4.4,7.3,4.8c2.6,0.4,4.7,0.2,6.7-0.6c2.3-0.9,4.6-2.7,7.2-5.3l62.7-69.6
	c5.5-6.2,12.1-11.1,19.5-14.6c7.1-3.3,14.9-5.2,23-5.2h54c4.8,0,9.2,0.9,13.2,2.9c4,1.9,7.4,4.8,10.1,8.7c1.3,1.8,2.3,3.8,3.1,5.8
	c2,5.3,2.3,11.2,0.8,16.8c-1.5,5.6-4.9,10.9-10.4,14.8c-1.8,1.3-3.9,2.4-6.1,3.3c-0.3,0.1-0.6,0.2-0.9,0.3l-66.4,19.9
	c-0.1,0-0.3,0.1-0.4,0.1c-2.7,0.9-5,2.5-6.5,4.6c-1.5,2-2.3,4.7-2.2,7.7c0.1,2.9,1.5,5.5,3.6,7.5c2.2,2,5.1,3.3,8.2,3.3L699.4,588.8
	L699.4,588.8z"/>
</svg>
